<svg xmlns="http://www.w3.org/2000/svg" viewBox="0 0 232 44" fill="none" role="img" aria-labelledby="bp-title">
  <title id="bp-title">BigPicture</title>
  <!-- Hex + aperture blues -->
  <defs>
    <linearGradient id="bp-a1" x1="0" y1="0" x2="1" y2="1">
      <stop offset="0%" stop-color="#1E88E5"/>
      <stop offset="100%" stop-color="#1565C0"/>
    </linearGradient>
    <linearGradient id="bp-a2" x1="1" y1="0" x2="0" y2="1">
      <stop offset="0%" stop-color="#42A5F5"/>
      <stop offset="100%" stop-color="#1976D2"/>
    </linearGradient>
  </defs>
  <path d="M22 2 38 11.2V28.8L22 38 6 28.8V11.2L22 2Z" fill="url(#bp-a1)"/>
  <path d="M22 2 38 11.2 30 16 22 10 14 16 6 11.2 22 2Z" fill="#2196F3" opacity="0.92"/>
  <path d="M38 11.2 38 28.8 30 32 22 26V16l8 6 8-10.8Z" fill="url(#bp-a2)"/>
  <path d="M6 11.2 14 16 22 10V26l-8 6-8-10.8V11.2Z" fill="#0D47A1" opacity="0.85"/>
  <path d="M22 26 30 32 22 38 14 32 22 26Z" fill="#64B5F6" opacity="0.9"/>
  <!-- White isometric cube -->
  <path d="M22 14 28 17.5v8L22 29l-6-3.5v-8L22 14Z" fill="#FFFFFF"/>
  <path d="M22 14 16 17.5 22 21 28 17.5 22 14Z" fill="#E3F2FD"/>
  <path d="M28 17.5 28 25.5 22 29V21l6-3.5Z" fill="#BBDEFB"/>
  <path d="M16 17.5 22 21v8l-6-3.5v-8Z" fill="#90CAF9"/>
  <!-- Wordmark -->
  <text
    x="48"
    y="29"
    fill="#374151"
    font-family="system-ui, -apple-system, 'Segoe UI', sans-serif"
    font-size="21"
    font-weight="600"
    letter-spacing="-0.025em"
  >
    BigPicture
  </text>
</svg>
