<svg xmlns="http://www.w3.org/2000/svg" viewBox="0 0 232 44" fill="none" role="img" aria-labelledby="bp-title">
  <title id="bp-title">BigPicture</title>
  <path d="M22 2 38 11.2V28.8L22 38 6 28.8V11.2L22 2Z" fill="url(#bp-a1)" />
  <defs>
    <linearGradient id="bp-a1" x1="0" y1="0" x2="1" y2="1">
      <stop offset="0%" stop-color="#1E88E5" />
      <stop offset="100%" stop-color="#1565C0" />
    </linearGradient>
  </defs>
  <path d="M22 2 38 11.2 30 16 22 10 14 16 6 11.2 22 2Z" fill="#2196F3" opacity="0.92" />
  <path d="M38 11.2 38 28.8 28 26 22 22 22 14 28 18 38 11.2Z" fill="#2563EB" opacity="0.9" />
  <path d="M6 11.2 14 16 22 10V26l-8-6-6-10.8Z" fill="#1E3A8A" opacity="0.85" />
  <path d="M22 26 28 26 22 28 14 26 22 26Z" fill="#64B5F6" opacity="0.9" />
  <path d="M22 17.5 26 20v5l-4 2.5-4-2.5v-5l4-2.5Z" fill="#FFFFFF" />
  <path d="M22 17.5 16 20 22 23 28 20 22 17.5Z" fill="#E3F2FD" />
  <text
    x="48"
    y="29"
    fill="#374151"
    font-family="system-ui, -apple-system, 'Segoe UI', sans-serif"
    font-size="21"
    font-weight="600"
    letter-spacing="-0.025em"
  >
    BigPicture
  </text>
</svg>
