<svg xmlns="http://www.w3.org/2000/svg" width="160" height="160" viewBox="0 0 160 160" fill="none">
  <path d="M68.8994 67.1334C68.8994 66.3329 69.5498 65.6841 70.352 65.6841H142.548C143.35 65.6841 144 66.3329 144 67.1334V111.191C144 119.195 137.497 125.684 129.474 125.684H83.4257C75.4031 125.684 68.8994 119.195 68.8994 111.191V67.1334Z" fill="url(#paint0_linear_847_1292)"/>
  <path d="M53.0654 67.1334C53.0654 66.3329 53.7158 65.6841 54.5181 65.6841H126.714C127.516 65.6841 128.166 66.3329 128.166 67.1334V111.191C128.166 119.195 121.663 125.684 113.64 125.684H67.5917C59.5691 125.684 53.0654 119.195 53.0654 111.191V67.1334Z" fill="url(#paint1_linear_847_1292)"/>
  <path fill-rule="evenodd" clip-rule="evenodd" d="M86.9111 41.25C80.4528 41.25 75.2173 46.5063 75.2173 52.9904V66H67V52.9904C67 41.95 75.9145 33 86.9111 33H111.089C122.085 33 131 41.95 131 52.9904V66H122.783V52.9904C122.783 46.5064 117.547 41.25 111.089 41.25H86.9111Z" fill="#397BFF"/>
  <path d="M94.1935 98.9674C97.5877 97.7121 100 94.5143 100 90.7677C100 85.9254 95.9706 82 91 82C86.0294 82 82 85.9254 82 90.7677C82 94.4066 84.2756 97.5278 87.5161 98.8543V110H94.1935V98.9674Z" fill="#090A0F"/>
  <path d="M90.6113 82C91.0841 82 91.5479 82.0396 92 82.1143C87.9047 82.7905 84.7774 86.4068 84.7773 90.7676C84.7773 94.4065 86.9552 97.528 90.0557 98.8545V110H87.2773V98.8545C84.177 97.5279 82 94.4064 82 90.7676C82.0001 85.9254 85.8556 82 90.6113 82Z" fill="#FF996C"/>
  <path fill-rule="evenodd" clip-rule="evenodd" d="M32.551 92.1476L33.0001 87.5001L34.0001 90.8174L39.1734 90.8173L34.5995 71.731C41.7391 68.569 45.83 60.6694 43.9451 52.8042C41.8215 43.9424 32.916 38.48 24.0543 40.6037C15.1925 42.7273 7.37651 50.1961 9.50015 59.0579C11.3233 66.6656 17.99 73.5519 25.4909 73.5001L27.5001 92.1476L31.5001 92.1476L32.551 92.1476ZM30.308 66.7C24.7572 68.0302 19.179 64.6087 17.8488 59.0579C16.5187 53.5071 19.9401 47.929 25.4909 46.5988C31.0417 45.2686 36.6199 48.69 37.9501 54.2408C39.2802 59.7916 35.8588 65.3698 30.308 66.7Z" fill="#ED7C4A"/>
  <path d="M30.5 96.375H35.375L38.7265 100.732L38.7236 107.994L48.0937 108L48.0896 114.506L38.7194 114.5L38.7112 118.994L48.0114 119L48.0073 125.989L30.5 125.973L30.5 96.375Z" fill="#ED7C4A"/>
  <path fill-rule="evenodd" clip-rule="evenodd" d="M27.5792 92.164L29.8966 87.3645L34.1732 90.8172L29.5994 71.7308C36.7389 68.5688 40.8298 60.6692 38.945 52.804C36.8214 43.9422 27.9159 38.4798 19.0541 40.6035C10.1923 42.7271 4.72996 51.6326 6.8536 60.4944C8.67672 68.1021 15.498 73.2044 22.999 73.1526L27.5509 92.1474L27.5792 92.164ZM25.3078 66.6998C19.757 68.03 14.1789 64.6085 12.8487 59.0577C11.5185 53.5069 14.94 47.9288 20.4908 46.5986C26.0416 45.2684 31.6197 48.6899 32.9499 54.2407C34.2801 59.7915 30.8586 65.3696 25.3078 66.6998Z" fill="url(#paint2_linear_847_1292)"/>
  <path d="M27 100.268L30.375 96.1431L33.7265 100.5L33.7236 108.005L43.0937 108.011L43.0895 114.518L33.7194 114.511L33.7112 118.994L43.0114 119L43.0073 126L28.481 125.99L28.481 125.985L26.957 125.984L27 100.268Z" fill="url(#paint3_linear_847_1292)"/>
  <path fill-rule="evenodd" clip-rule="evenodd" d="M157 127.25H7V125.75H157V127.25Z" fill="#090A0F"/>
  <path fill-rule="evenodd" clip-rule="evenodd" d="M8.78884 87.3076L20.7888 92.3076L20.2119 93.6922L8.21191 88.6922L8.78884 87.3076Z" fill="#090A0F"/>
  <path fill-rule="evenodd" clip-rule="evenodd" d="M8.78884 103.692L20.7888 98.6924L20.2119 97.3078L8.21191 102.308L8.78884 103.692Z" fill="#090A0F"/>
  <defs>
    <linearGradient id="paint0_linear_847_1292" x1="106.45" y1="65.6841" x2="106.45" y2="125.684" gradientUnits="userSpaceOnUse">
      <stop stop-color="#397BFF"/>
      <stop offset="1" stop-color="#A97DFF"/>
    </linearGradient>
    <linearGradient id="paint1_linear_847_1292" x1="59.5001" y1="65.9999" x2="123" y2="126" gradientUnits="userSpaceOnUse">
      <stop stop-color="#FF996C"/>
      <stop offset="1" stop-color="#FFF6B6"/>
    </linearGradient>
    <linearGradient id="paint2_linear_847_1292" x1="19.043" y1="40.6061" x2="31.2794" y2="91.5127" gradientUnits="userSpaceOnUse">
      <stop stop-color="#FFF6B6"/>
      <stop offset="1" stop-color="#FF996C"/>
    </linearGradient>
    <linearGradient id="paint3_linear_847_1292" x1="30" y1="97.375" x2="38.7892" y2="126.688" gradientUnits="userSpaceOnUse">
      <stop stop-color="#FF996C"/>
      <stop offset="1" stop-color="#FFF6B6"/>
    </linearGradient>
  </defs>
</svg>
